0
SECTION
2
HEADER
9
$INSUNITS
70
4
9
$ACADVER
1
AC1014
9
$HANDSEED
5
FFFF
0
ENDSEC
0
SECTION
2
TABLES
0
TABLE
2
VPORT
5
8
100
AcDbSymbolTable
0
ENDTAB
0
TABLE
2
LTYPE
5
5
100
AcDbSymbolTable
0
LTYPE
5
14
100
AcDbSymbolTableRecord
100
AcDbLinetypeTableRecord
2
BYBLOCK
70
0
0
LTYPE
5
15
100
AcDbSymbolTableRecord
100
AcDbLinetypeTableRecord
2
BYLAYER
70
0
0
ENDTAB
0
TABLE
2
LAYER
5
2
100
AcDbSymbolTable
70
2
0
LAYER
5
50
100
AcDbSymbolTableRecord
100
AcDbLayerTableRecord
2
0
70
0
6
CONTINUOUS
0
ENDTAB
0
TABLE
2
STYLE
5
3
100
AcDbSymbolTable
70
1
0
STYLE
5
11
100
AcDbSymbolTableRecord
100
AcDbTextStyleTableRecord
2
STANDARD
70
0
0
ENDTAB
0
TABLE
2
VIEW
5
6
100
AcDbSymbolTable
70
0
0
ENDTAB
0
TABLE
2
UCS
5
7
100
AcDbSymbolTable
70
0
0
ENDTAB
0
TABLE
2
APPID
5
9
100
AcDbSymbolTable
70
2
0
APPID
5
12
100
AcDbSymbolTableRecord
100
AcDbRegAppTableRecord
2
ACAD
70
0
0
ENDTAB
0
TABLE
2
DIMSTYLE
5
A
100
AcDbSymbolTable
70
1
0
ENDTAB
0
TABLE
2
BLOCK_RECORD
5
1
100
AcDbSymbolTable
70
1
0
BLOCK_RECORD
5
1F
100
AcDbSymbolTableRecord
100
AcDbBlockTableRecord
2
*MODEL_SPACE
0
BLOCK_RECORD
5
1B
100
AcDbSymbolTableRecord
100
AcDbBlockTableRecord
2
*PAPER_SPACE
0
ENDTAB
0
ENDSEC
0
SECTION
2
BLOCKS
0
BLOCK
5
20
100
AcDbEntity
100
AcDbBlockBegin
2
*MODEL_SPACE
0
ENDBLK
5
21
100
AcDbEntity
100
AcDbBlockEnd
0
BLOCK
5
1C
100
AcDbEntity
100
AcDbBlockBegin
2
*PAPER_SPACE
0
ENDBLK
5
1D
100
AcDbEntity
100
AcDbBlockEnd
0
ENDSEC
0
SECTION
2
ENTITIES
0
LWPOLYLINE
5
100
100
AcDbEntity
8
0
100
AcDbPolyline
90
12
70
1
43
0.0
10
212.98225016310357
20
214.60205931958666
42
-0.47826705447946616
10
-210.17456455675588
20
214.62579611827235
42
0.22684444313165661
10
-221.85211054576592
20
220.21118408834019
10
-305.10160833520877
20
220.21118408847462
42
0.41421356237290013
10
-320.1016083351098
20
205.21118408856367
10
-320.10160833519905
20
-205.07036534597233
42
0.4142135623730881
10
-305.10160833519916
20
-220.07036534597202
10
304.89833068812248
20
-220.07036534597106
42
0.41421356237310125
10
319.89833068813073
20
-205.07036534596833
10
319.89833068812862
20
204.98076011514985
42
0.41346408809950669
10
304.93672379279479
20
219.9807109807216
10
224.69713296616504
20
220.18608812067723
42
0.22748785523584183
0
CIRCLE
5
101
100
AcDbEntity
8
0
100
AcDbCircle
10
-243.00000000000006
20
24.929634654028057
30
0
40
1.9999999999999929
210
0
220
-0
230
1
0
CIRCLE
5
102
100
AcDbEntity
8
0
100
AcDbCircle
10
167.0000000000004
20
24.929634654028128
30
0
40
1.9999999999999929
210
0
220
-0
230
1
0
CIRCLE
5
103
100
AcDbEntity
8
0
100
AcDbCircle
10
243.00000000000006
20
-175.07036534597191
30
0
40
1.9999999999999929
210
0
220
-0
230
1
0
CIRCLE
5
104
100
AcDbEntity
8
0
100
AcDbCircle
10
-243.00000000000006
20
74.929634654028064
30
0
40
1.9999999999999929
210
0
220
-0
230
1
0
CIRCLE
5
105
100
AcDbEntity
8
0
100
AcDbCircle
10
-242.99999999999997
20
-175.07036534597199
30
0
40
1.9999999999999929
210
0
220
-0
230
1
0
CIRCLE
5
106
100
AcDbEntity
8
0
100
AcDbCircle
10
243.00000000000006
20
74.929634654028106
30
0
40
1.9999999999999929
210
0
220
-0
230
1
0
CIRCLE
5
107
100
AcDbEntity
8
0
100
AcDbCircle
10
167.00000000000011
20
-125.07036534597191
30
0
40
1.9999999999999929
210
0
220
-0
230
1
0
CIRCLE
5
108
100
AcDbEntity
8
0
100
AcDbCircle
10
-242.99999999999997
20
-125.07036534597198
30
0
40
1.9999999999999929
210
0
220
-0
230
1
0
CIRCLE
5
109
100
AcDbEntity
8
0
100
AcDbCircle
10
-167.00000000000028
20
24.929634654028092
30
0
40
1.9999999999999929
210
0
220
-0
230
1
0
CIRCLE
5
110
100
AcDbEntity
8
0
100
AcDbCircle
10
243.00000000000006
20
24.92963465402811
30
0
40
1.9999999999999929
210
0
220
-0
230
1
0
CIRCLE
5
111
100
AcDbEntity
8
0
100
AcDbCircle
10
167.00000000000011
20
-175.07036534597191
30
0
40
1.9999999999999929
210
0
220
-0
230
1
0
CIRCLE
5
112
100
AcDbEntity
8
0
100
AcDbCircle
10
-167.00000000000028
20
74.929634654028092
30
0
40
1.9999999999999929
210
0
220
-0
230
1
0
CIRCLE
5
113
100
AcDbEntity
8
0
100
AcDbCircle
10
-167.00000000000003
20
-175.07036534597194
30
0
40
1.9999999999999929
210
0
220
-0
230
1
0
CIRCLE
5
114
100
AcDbEntity
8
0
100
AcDbCircle
10
167.0000000000004
20
74.929634654028121
30
0
40
1.9999999999999929
210
0
220
-0
230
1
0
CIRCLE
5
115
100
AcDbEntity
8
0
100
AcDbCircle
10
243.00000000000006
20
-125.07036534597191
30
0
40
1.9999999999999929
210
0
220
-0
230
1
0
CIRCLE
5
116
100
AcDbEntity
8
0
100
AcDbCircle
10
-167.00000000000003
20
-125.07036534597194
30
0
40
1.9999999999999929
210
0
220
-0
230
1
0
LWPOLYLINE
5
117
100
AcDbEntity
8
0
100
AcDbPolyline
90
4
70
1
43
0.0
10
-49.999999999999972
20
-150.07036534597194
10
-49.999999999999972
20
-210.07036534597194
10
50.000000000000028
20
-210.07036534597194
10
50.000000000000028
20
-150.07036534597194
0
ENDSEC
0
SECTION
2
OBJECTS
0
DICTIONARY
5
C
100
AcDbDictionary
3
ACAD_GROUP
350
D
3
ACAD_MLINESTYLE
350
17
0
DICTIONARY
5
D
100
AcDbDictionary
0
DICTIONARY
5
1A
330
C
100
AcDbDictionary
0
DICTIONARY
5
17
100
AcDbDictionary
0
ENDSEC
0
EOF
